Coordinates
version=1
nRows=10
nColumns=50
inDegrees=no

Units are S.I. units (second, meters, Newtons, ...)
If the header above contains a line with 'inDegrees', this indicates whether rotational values are in degrees (yes) or radians (no).

endheader
time	pelvis_tilt	pelvis_list	pelvis_rotation	pelvis_tx	pelvis_ty	pelvis_tz	hip_flexion_r	hip_adduction_r	hip_rotation_r	knee_angle_r	ankle_angle_r	subtalar_angle_r	mtp_angle_r	hip_flexion_l	hip_adduction_l	hip_rotation_l	knee_angle_l	ankle_angle_l	subtalar_angle_l	mtp_angle_l	lumbar_bending	lumbar_extension	lumbar_twist	thorax_bending	thorax_extension	thorax_twist	head_bending	head_extension	head_twist	scapula_abduction_r	scapula_elevation_r	scapula_upward_rot_r	shoulder_r_x	shoulder_r_y	shoulder_r_z	elbow_flexion_r	pro_sup_r	wrist_flexion_r	wrist_deviation_r	scapula_abduction_l	scapula_elevation_l	scapula_upward_rot_l	shoulder_l_x	shoulder_l_y	shoulder_l_z	elbow_flexion_l	pro_sup_l	wrist_flexion_l	wrist_deviation_l
1.11875	0.0103523	-0.184405	-1.77964	0.102704	0.994867	-0.03336	-0.165651	-0.129895	-0.244424	0.268086	0.117426	0.104861	-0.0927195	-0.142483	-0.0101196	-0.0193865	0.254048	0.0952336	0.0249598	-0.0723025	0.0182946	-0.541026	-0.0224064	-0.0511575	0.184038	0.000626705	0.0421107	-0.148345	-0.0229642	-1.18071	-0.15554	0.0707805	-0.490176	0.0773049	-0.380156	0.567579	0.118281	0.226659	-0.0864225	-1.16841	-0.0669096	0.0516321	0.528205	-0.0752304	-0.317388	0.57732	0.16239	0.259786	-0.0743356
1.12704	0.00997446	-0.184973	-1.77964	0.102704	0.994872	-0.0338594	-0.166652	-0.130118	-0.243286	0.267378	0.116923	0.104903	-0.0927595	-0.142	-0.0109541	-0.0189233	0.254702	0.095101	0.0243144	-0.0722955	0.0168438	-0.541085	-0.0225349	-0.0519888	0.184764	0.0013146	0.043094	-0.146175	-0.0242045	-1.1803	-0.15616	0.0693911	-0.488779	0.0783721	-0.378512	0.566572	0.119132	0.226998	-0.0865587	-1.16793	-0.0671831	0.0507133	0.527835	-0.0759743	-0.315522	0.575555	0.162804	0.260034	-0.0745506
1.13533	0.00961494	-0.185563	-1.77945	0.102688	0.994871	-0.0342787	-0.167436	-0.130277	-0.242222	0.266932	0.116434	0.104891	-0.0928123	-0.141633	-0.0117169	-0.0185095	0.255481	0.0949857	0.0236771	-0.072302	0.0155073	-0.541146	-0.0226542	-0.0527383	0.185492	0.00188364	0.0440351	-0.144097	-0.0253699	-1.17988	-0.156752	0.0681212	-0.487512	0.0792983	-0.376847	0.565661	0.119963	0.227331	-0.0866735	-1.16744	-0.0674443	0.0498883	0.527429	-0.0767637	-0.313567	0.57401	0.163256	0.260296	-0.0747488
1.14361	0.00924767	-0.186168	-1.77912	0.102679	0.994863	-0.0346273	-0.167984	-0.130385	-0.241233	0.266699	0.115967	0.104859	-0.092873	-0.141338	-0.0124343	-0.0181638	0.256351	0.0948877	0.023068	-0.0723233	0.0142718	-0.541251	-0.0227637	-0.0534206	0.186202	0.00234851	0.0449253	-0.142153	-0.0264545	-1.17948	-0.15731	0.0669779	-0.486348	0.0801002	-0.375183	0.564848	0.120761	0.227649	-0.0867719	-1.16694	-0.0676918	0.0491498	0.526979	-0.0775812	-0.311556	0.572682	0.16372	0.260556	-0.0749343
1.1519	0.0088452	-0.186779	-1.77869	0.102692	0.994845	-0.034912	-0.168289	-0.13045	-0.24031	0.266619	0.115526	0.10484	-0.0929366	-0.141086	-0.0131329	-0.0178959	0.257267	0.0948062	0.0225041	-0.0723609	0.0131254	-0.541425	-0.0228613	-0.0540492	0.186877	0.00272776	0.0457583	-0.140366	-0.0274582	-1.17909	-0.157832	0.0659535	-0.485248	0.0808065	-0.373539	0.564127	0.121518	0.227947	-0.0868605	-1.16643	-0.0679266	0.048482	0.526473	-0.0784153	-0.309511	0.571559	0.164177	0.260806	-0.075114
1.16019	0.00838497	-0.187386	-1.77818	0.102739	0.994813	-0.0351377	-0.16835	-0.130473	-0.239444	0.266628	0.115104	0.104859	-0.092998	-0.140859	-0.0138314	-0.017706	0.258167	0.094737	0.0220015	-0.0724102	0.0120586	-0.541686	-0.022945	-0.0546324	0.187511	0.00304177	0.0465285	-0.138746	-0.0283829	-1.17871	-0.15832	0.0650254	-0.484172	0.0814567	-0.371931	0.56349	0.122228	0.228223	-0.0869473	-1.16592	-0.0681499	0.0478594	0.525905	-0.0792636	-0.307457	0.570618	0.164608	0.261037	-0.0752961
1.16847	0.00785434	-0.187981	-1.77763	0.102828	0.994765	-0.0353069	-0.168182	-0.130451	-0.238624	0.266663	0.114689	0.104938	-0.093053	-0.140646	-0.0145398	-0.0175848	0.258988	0.0946729	0.0215746	-0.0724676	0.0110666	-0.542035	-0.0230129	-0.0551764	0.188104	0.00331194	0.0472331	-0.137291	-0.0292317	-1.17836	-0.158777	0.0641614	-0.483076	0.0820939	-0.370373	0.562925	0.122886	0.228482	-0.0870406	-1.16539	-0.0683633	0.0472552	0.525267	-0.0801261	-0.305418	0.569828	0.165001	0.261247	-0.0754895
1.17676	0.00725347	-0.188558	-1.77706	0.102962	0.994698	-0.0354209	-0.167814	-0.130392	-0.237839	0.266674	0.114266	0.105084	-0.0930996	-0.140444	-0.015263	-0.0175157	0.259678	0.0946052	0.0212317	-0.0725308	0.0101484	-0.542458	-0.0230643	-0.0556836	0.188656	0.00355895	0.0478722	-0.13599	-0.0300087	-1.17801	-0.159207	0.0633251	-0.481923	0.0827599	-0.36888	0.562418	0.123491	0.228728	-0.0871473	-1.16487	-0.0685679	0.0466446	0.524553	-0.0810039	-0.303422	0.569158	0.165346	0.261434	-0.0757025
1.18505	0.00659589	-0.189117	-1.77645	0.103141	0.994612	-0.0354795	-0.167295	-0.130315	-0.237077	0.266618	0.113818	0.105299	-0.0931386	-0.140256	-0.0160061	-0.0174782	0.260202	0.094525	0.0209754	-0.0725983	0.0093031	-0.542929	-0.0231014	-0.0561522	0.189168	0.00380024	0.0484486	-0.13482	-0.0307199	-1.17769	-0.159618	0.062481	-0.480681	0.0834892	-0.36747	0.561946	0.124042	0.228968	-0.0872717	-1.16435	-0.0687655	0.0460061	0.52376	-0.0818984	-0.301501	0.568568	0.16564	0.261601	-0.0759415
1.19334	0.0059071	-0.189658	-1.77578	0.103361	0.994508	-0.0354826	-0.166689	-0.130244	-0.23632	0.26646	0.113331	0.105576	-0.0931719	-0.140091	-0.0167733	-0.0174513	0.260537	0.0944236	0.020803	-0.0726694	0.00852842	-0.543415	-0.0231279	-0.056577	0.189639	0.0040466	0.0489675	-0.133754	-0.0313716	-1.17738	-0.160014	0.0615988	-0.479334	0.0843045	-0.366162	0.561476	0.124543	0.229209	-0.0874148	-1.16384	-0.0689576	0.0453237	0.52289	-0.0828097	-0.299681	0.568016	0.165882	0.261754	-0.0762094
